<svg width="32" height="32" viewBox="0 0 256 128" fill="none" xmlns="http://www.w3.org/2000/svg">
  <style>
    path {
      fill: black;
    }
    @media (prefers-color-scheme: dark) {
      path {
        fill: white;
      }
    }
  </style>
  <g>
    <path d="M0 -0.499924C14.1643 -0.499924 28.3286 -0.499924 42.9222 -0.499924C42.9222 27.5474 42.9222 55.5948 42.9222 84.4921C56.7492 84.4921 70.5763 84.4921 84.8224 84.4921C84.8224 56.4447 84.8224 28.3974 84.8224 -0.499924C99.3239 -0.499924 113.825 -0.499924 128.766 -0.499924C142.425 13.1858 156.083 26.8716 170.156 40.9721C168.94 42.0166 171.336 39.9583 170.156 40.9721C182.465 28.638 199.884 12.2078 212.567 -0.5C226.9 -0.5 241.233 -0.499924 256 -0.499924C256 41.7401 256 83.9801 256 127.5C241.836 127.5 227.671 127.5 213.078 127.5C212.825 94.5529 212.825 94.5529 212.567 60.9401C198.74 74.7948 184.913 88.6495 170.667 102.924C171.883 103.969 169.486 101.91 170.667 102.924C158.02 90.2521 141.796 74.5081 128.766 61.4521C128.514 94.1459 128.514 94.1458 128.255 127.5C85.9312 127.5 43.6069 127.5 0 127.5C0 85.2601 0 43.0201 0 -0.499924Z"/>
  </g>
</svg>